<?xml version="1.0" encoding="UTF-8"?> <svg xmlns="http://www.w3.org/2000/svg" width="101" height="22" viewBox="0 0 101 22"><g fill="none" fill-rule="nonzero"><g fill="#000"><path d="M43.495 13.593l-.791-4.595c-.226-1.325-.514-3.394-.734-4.828h-.086c-.231 1.445-.554 3.573-.791 4.839l-.852 4.584h3.254zm-3.679 2.994l-1.028 5.099h-3.8L39.728.47h4.656l4.305 21.215h-3.82l-1.005-5.1h-4.048zM56.455 12.376c0-.284 0-.617-.058-.922-.152-1.053-.723-2.002-1.641-2.002-1.575 0-2.155 2.228-2.155 4.834 0 2.995.827 4.7 2.1 4.7.583 0 1.254-.294 1.619-1.55.088-.251.135-.586.135-.978v-4.082zM60.37 0v17.484c0 1.385.072 3.09.129 4.423h-3.382l-.221-1.778h-.08c-.569 1.096-1.805 2.028-3.283 2.028-3.239 0-4.845-3.51-4.845-7.942 0-5.4 2.395-8.026 5.006-8.026 1.366 0 2.25.657 2.694 1.606h.066V0h3.916zM68.364 19.196c1.502 0 1.874-2.777 1.874-5.076 0-2.186-.372-5.034-1.94-5.034-1.66 0-2.009 2.848-2.009 5.034 0 2.639.438 5.076 2.04 5.076h.035zm-.074 2.961c-3.626 0-5.9-2.856-5.9-7.969 0-5.58 2.92-8.06 5.992-8.06 3.577 0 5.819 2.996 5.819 7.97 0 6.391-3.513 8.06-5.88 8.06h-.031zM80.13 16.385c0 .386.071.747.155.988.392 1.294 1.056 1.612 1.588 1.612 1.512 0 2.122-1.885 2.122-4.9 0-2.743-.645-4.633-2.14-4.633-.74 0-1.364.792-1.58 1.642a4.206 4.206 0 0 0-.145.972v4.319zM76.222 0h3.907v8.057h.063c.77-1.189 1.795-1.868 3.284-1.868 2.946 0 4.426 3.296 4.426 7.607 0 5.446-2.208 8.361-5.068 8.361-1.362 0-2.27-.595-3.088-2.101h-.083l-.217 1.85H76.09c.057-1.281.13-3.037.13-4.422V0zM97.065 12.712c.02-2.187-.628-3.72-1.867-3.72-1.415 0-2.016 2.052-2.059 3.72h3.926zm-3.94 2.74c.046 2.817 1.54 3.734 3.396 3.734a8.417 8.417 0 0 0 2.929-.536l.526 2.787c-1.036.442-2.637.72-4.172.72-4.194 0-6.485-2.84-6.485-7.693 0-5.208 2.657-8.335 6.127-8.335 3.353 0 5.211 2.764 5.211 7.276 0 1.033-.043 1.615-.111 2.068l-7.421-.022z"></path></g><g fill="#ED1C24"><path d="M16.267 0h9.247v22.152zM9.752 0H.5v22.152zM8.967 17.695l4.044-9.533 5.89 13.989h-3.86l-1.761-4.456z"></path></g></g></svg> 