<?xml version="1.0" encoding="UTF-8"?> <svg xmlns="http://www.w3.org/2000/svg" width="130" height="23" viewBox="0 0 130 23"><g fill="#1C1C1A" fill-rule="evenodd"><path d="M13.15 3.644c.8-.965 1.336-2.308 1.188-3.644-1.148.042-2.54.764-3.363 1.73-.738.853-1.386 2.22-1.21 3.528 1.28.1 2.589-.65 3.385-1.614m5.939 13.1c-.029.082-.48 1.639-1.581 3.247-.951 1.39-1.94 2.777-3.495 2.805-1.528.029-2.02-.907-3.767-.907-1.748 0-2.295.88-3.74.936-1.502.056-2.646-1.504-3.605-2.889C.94 17.101-.557 11.926 1.455 8.435 2.452 6.699 4.24 5.6 6.178 5.573c1.475-.028 2.865.99 3.768.99.902 0 2.592-1.225 4.37-1.046.743.032 2.832.3 4.175 2.265-.107.068-2.494 1.456-2.468 4.344.031 3.455 3.031 4.604 3.066 4.619M26.628 16.093c.124.883.963 1.414 2.148 1.414 1.13 0 1.938-.58 1.938-1.377 0-.69-.47-1.123-1.66-1.382l-.97-.203c-1.783-.377-2.591-1.204-2.591-2.488 0-1.524 1.339-2.573 3.234-2.573 1.888 0 3.178 1.068 3.221 2.623h-1.34c-.085-.895-.82-1.444-1.9-1.444-1.043 0-1.808.506-1.808 1.32 0 .648.456 1.08 1.61 1.327l.976.204c1.863.395 2.629 1.141 2.629 2.438 0 1.678-1.321 2.733-3.395 2.733-2.012 0-3.35-1.005-3.437-2.592h1.345zM34.294 14.693h3.246c-.03-.994-.66-1.692-1.592-1.692s-1.586.71-1.654 1.692zM38.8 16.63c-.185 1.185-1.308 2.03-2.795 2.03-1.907 0-3.061-1.29-3.061-3.338 0-2.036 1.172-3.394 3.005-3.394 1.802 0 2.925 1.27 2.925 3.24v.456h-4.585v.08c0 1.13.679 1.877 1.747 1.877.759 0 1.32-.383 1.5-.951h1.264zM43.873 16.106v-.513l-1.598.099c-.796.056-1.247.408-1.247.963 0 .567.47.938 1.185.938.932 0 1.66-.642 1.66-1.487m-4.19.586c0-1.135.87-1.833 2.413-1.92l1.777-.104v-.5c0-.722-.487-1.154-1.302-1.154-.771 0-1.253.37-1.37.95h-1.259c.074-1.172 1.074-2.036 2.678-2.036 1.574 0 2.58.833 2.58 2.135v4.474h-1.277v-1.068h-.031c-.377.722-1.198 1.18-2.05 1.18-1.27 0-2.16-.79-2.16-1.957M46.743 12.045h1.271v1.104h.03c.217-.758.797-1.209 1.562-1.209.192 0 .358.031.457.05v1.24c-.105-.043-.34-.074-.599-.074-.857 0-1.388.574-1.388 1.493v3.888h-1.333v-6.492zM54.977 14.279c-.136-.691-.654-1.24-1.524-1.24-1.031 0-1.71.857-1.71 2.252 0 1.426.685 2.252 1.722 2.252.82 0 1.358-.45 1.512-1.203h1.284c-.142 1.382-1.247 2.32-2.808 2.32-1.858 0-3.068-1.27-3.068-3.369 0-2.061 1.21-3.363 3.055-3.363 1.673 0 2.691 1.073 2.808 2.351h-1.271zM57.216 9.632h1.321v3.5h.03c.359-.76 1.069-1.198 2.056-1.198 1.426 0 2.277.95 2.277 2.419v4.184h-1.339v-3.925c0-.956-.481-1.53-1.42-1.53-.987 0-1.592.679-1.592 1.703v3.752h-1.333V9.632zM68.913 15.02h2.69l-1.326-3.907h-.037l-1.327 3.907zm3.042 1.11h-3.394l-.815 2.407h-1.438l3.216-8.905h1.493l3.216 8.905H72.77l-.815-2.407zM75.913 15.291c0 1.37.66 2.228 1.715 2.228 1.025 0 1.71-.87 1.71-2.228 0-1.345-.685-2.228-1.71-2.228-1.055 0-1.715.864-1.715 2.228m-1.364 0c0-2.049 1.086-3.351 2.715-3.351.932 0 1.673.469 2.036 1.185h.025V9.632h1.34v8.905h-1.296v-1.104h-.025c-.383.74-1.123 1.215-2.068 1.215-1.641 0-2.727-1.308-2.727-3.357M84.253 11.928c1.512 0 2.493.84 2.536 2.036h-1.253c-.074-.629-.537-1.024-1.283-1.024-.722 0-1.204.352-1.204.87 0 .407.297.685 1 .845l1.055.241c1.327.309 1.833.827 1.833 1.765 0 1.185-1.105 2-2.635 2-1.623 0-2.598-.797-2.722-2.031h1.321c.124.68.586 1.012 1.4 1.012.803 0 1.297-.333 1.297-.864 0-.42-.24-.666-.95-.826l-1.056-.247c-1.234-.285-1.845-.877-1.845-1.821 0-1.16 1.012-1.956 2.506-1.956M91.825 14.334h1.586c1.204 0 1.889-.647 1.889-1.77 0-1.124-.685-1.766-1.883-1.766h-1.592v3.536zm1.957-4.702c1.728 0 2.931 1.191 2.931 2.925 0 1.74-1.228 2.938-2.975 2.938h-1.913v3.042h-1.382V9.632h3.339zM101.302 16.106v-.513l-1.599.099c-.796.056-1.246.408-1.246.963 0 .567.469.938 1.184.938.933 0 1.66-.642 1.66-1.487m-4.19.586c0-1.135.87-1.833 2.413-1.92l1.778-.104v-.5c0-.722-.488-1.154-1.302-1.154-.772 0-1.253.37-1.37.95h-1.26c.074-1.172 1.074-2.036 2.679-2.036 1.574 0 2.58.833 2.58 2.135v4.474h-1.278v-1.068h-.03c-.377.722-1.198 1.18-2.05 1.18-1.271 0-2.16-.79-2.16-1.957M104.095 12.045h1.272v1.104h.03c.216-.758.796-1.209 1.562-1.209.191 0 .358.031.456.05v1.24c-.104-.043-.339-.074-.598-.074-.858 0-1.389.574-1.389 1.493v3.888h-1.333v-6.492zM110.388 10.508v1.537h1.234V13.1h-1.234v3.58c0 .561.247.814.79.814.135 0 .352-.012.438-.03v1.055a3.7 3.7 0 0 1-.74.061c-1.315 0-1.827-.5-1.827-1.753V13.1h-.945v-1.055h.945v-1.537h1.339zM113.03 12.045h1.272v1.086h.03c.353-.74 1.044-1.197 2.044-1.197 1.431 0 2.252.913 2.252 2.4v4.203h-1.34v-3.943c0-.975-.456-1.512-1.382-1.512-.938 0-1.542.666-1.542 1.672v3.783h-1.333v-6.492zM121.137 14.693h3.247c-.031-.994-.66-1.692-1.593-1.692-.931 0-1.585.71-1.654 1.692zm4.506 1.937c-.185 1.185-1.309 2.03-2.796 2.03-1.907 0-3.061-1.29-3.061-3.338 0-2.036 1.173-3.394 3.005-3.394 1.803 0 2.926 1.27 2.926 3.24v.456h-4.586v.08c0 1.13.68 1.877 1.747 1.877.76 0 1.32-.383 1.5-.951h1.265zM127.013 12.045h1.271v1.104h.031c.216-.758.796-1.209 1.561-1.209.192 0 .358.031.457.05v1.24c-.105-.043-.34-.074-.598-.074-.859 0-1.39.574-1.39 1.493v3.888h-1.332v-6.492z"></path></g></svg> 