<?xml version="1.0" encoding="UTF-8"?> <svg xmlns="http://www.w3.org/2000/svg" xmlns:xlink="http://www.w3.org/1999/xlink" width="69" height="32" viewBox="0 0 69 32"><defs><path id="a" d="M0 0h68.693v32.686H0z"></path></defs><g fill="none" fill-rule="evenodd" transform="translate(.5)"><mask id="b" fill="#fff"><use xlink:href="#a"></use></mask><path fill="#212123" d="M68.597 19.417s-.679-.98-.89-1.26c-.142-.182-.318-.406-.787-.077-1.032.714-2.193 1.365-3.625 1.365-1.093 0-2.05-.287-2.764-.91.3-.14.612-.294.93-.47 1.691-.945 3.103-2.142 3.782-2.842 3.293-3.396 2.26-8.459-1.751-8.459-3.789 0-6.783 3.81-6.783 8.039 0 .637.075 1.547.34 2.513-.225.112-1.725.862-3.524 1.884-1.69-1.31-4.332-.721-4.332-.721 2.451-3.585 6.138-9.187 6.45-9.65.224-.328.19-.657-.027-1.176-.278-.623-.557-.735-.937-.735h-7.658c-.251 0-.448.12-.523.413-.068.287-.23 1.289-.258 1.632-.034.343.278.553.604.553h5.547l-5.017 7.401a.39.39 0 0 0-.095.112c-.727 1.086-1.847 2.605-3.191 2.605-.835 0-1.867-.616-1.867-2.633 0-1.974.774-6.148 1.337-9.397.061-.35-.054-.693-.597-.693h-1.358c-.312 0-.489.196-.536.47-.082.497-.163.987-.245 1.456-.672-1.324-1.745-2.073-3.3-2.073-1.439 0-2.844.553-3.991 1.73-2.865 2.955-2.322 7.772-4.794 10.32-1.065 1.1-2.274.764-2.274-1.4 0-2.471.916-5.223 1.969-7.835.183-.462-.014-.847-.21-1.148-.28-.42-.388-.645-.89-.645-.78 0-2.03.512-4.528.512-.53 0-1.04-.021-1.494-.056.027-.386.034-.645.04-.743.014-.364-.108-.595-.481-.595h-1.277c-.461 0-.577.224-.631.595-.217 1.576-.632 7.36-3.442 10.259-.326.336-.523.44-.523.44.7-1.414 1.08-3.27 1.08-4.74 0-4.138-2.377-6.7-5.357-6.7-.91 0-1.874.3-2.777.881.42-2.52.808-4.88.944-5.678C9 1.288 8.763.938 8.594.658 8.309.203 8.057 0 7.677 0h-4.4c-.25 0-.44.182-.502.47-.074.335-.23 1.218-.251 1.624-.013.357.224.49.503.49h3.218C5.729 5.84 4.75 12.149 4.452 13.73 4.08 15.748 2.687 18.22.345 19.095c-.292.112-.414.385-.306.707.109.322.51 1.163.632 1.38.122.224.393.37.651.28a8.638 8.638 0 0 0 3.212-2.059c.217-.224.427-.476.631-.75 1.052 2.438 3.191 3.327 5.384 3.327 2.478 0 5.153-.89 7.027-2.83 2.193-2.254 3.11-5.993 3.496-8.64.543.077 1.161.14 1.752.14 1.507 0 2.77-.329 2.77-.329s-1.52 4.16-1.52 7.226c0 3.46 1.601 4.44 3.38 4.44 1.826 0 3.11-1.415 4.026-3.165.238.546.59 1.197 1.073 1.694.828.855 1.854 1.47 3.333 1.47 1.69 0 3.144-1.008 4.176-2.555.183.651.468 1.197.855 1.596.523.54 1.48.96 2.682.96 2.064 0 3.259-1.597 6.47-1.597.408 0 .774.063 1.107.182-1.473.925-2.872 1.92-3.727 2.801-2.648 2.731-2.77 6.323-1.032 8.116 2.104 2.17 5.105 1.085 6.979-.848 2.193-2.261 2.831-6.54 1.562-9.466 1.534-.834 2.817-1.45 3.122-1.597.958 1.352 2.546 2.409 5.167 2.409 1.874 0 3.761-.686 5.235-1.835.23-.16.278-.497.115-.735M11.84 18.5c-.597.616-1.33.945-2.07.945-.693 0-1.29-.322-1.786-.833-1.698-1.75-1.548-6.043.63-8.298.619-.637 1.366-1.008 2.133-1.008.685 0 1.29.315 1.785.826 1.596 1.646 1.69 5.91-.692 8.368m24.21.931c-1.833 0-3.02-2.269-2.654-5.07.36-2.8 2.138-5.07 3.972-5.07 1.697 0 2.837 1.948 2.708 4.461-.047.365-.088.715-.122 1.05-.482 2.592-2.172 4.63-3.904 4.63m15.229 9.872c-2.39 2.465-5.445-.68-1.881-4.355.808-.833 2.132-1.75 3.51-2.584.788 2.01.163 5.084-1.63 6.94m9.6-18.949c1.8-1.855 3.796-1.31 3.796.49 0 1.758-2.044 3.656-4.508 5.126-.238.14-.523.301-.808.448a6.986 6.986 0 0 1-.15-1.477c0-1.506.618-3.501 1.67-4.587" mask="url(#b)"></path></g></svg> 