<?xml version="1.0" encoding="UTF-8"?> <svg xmlns="http://www.w3.org/2000/svg" xmlns:xlink="http://www.w3.org/1999/xlink" width="67" height="25" viewBox="0 0 67 25"><defs><path id="a" d="M0 .068h65.595v23.496H0z"></path></defs><g fill="none" fill-rule="evenodd"><g transform="translate(.5 .193)"><mask id="b" fill="#fff"><use xlink:href="#a"></use></mask><path fill="#335197" d="M65.595 22.44c0 .618-.577 1.124-1.288 1.124H1.289c-.712 0-1.29-.506-1.29-1.124V1.19C0 .572.578.068 1.29.068h63.018c.711 0 1.288.504 1.288 1.122v21.25z" mask="url(#b)"></path></g><path fill="#FEFEFE" d="M30.046 5.819h.733v5.078h-.682V7l-1.285 2.555h-.683L26.845 7v3.897h-.683V5.82h.735l1.574 3.12zM35.189 10.897h-.622l-.044-.312c-.244.168-.84.39-1.382.39-.927 0-1.294-.474-1.294-1.183 0-.747.428-1.137 1.347-1.137.542 0 1.023.124 1.259.214v-.58c0-.488-.174-.693-.822-.693-.385 0-.77.046-1.155.146l-.113-.528c.376-.107.9-.174 1.347-.174 1.006 0 1.479.38 1.479 1.212v2.645zm-.736-1.594a4.72 4.72 0 0 0-1.154-.16c-.586 0-.734.244-.734.664 0 .465.174.686.681.686.524 0 .962-.175 1.207-.321v-.869zM38.503 7.65a5.811 5.811 0 0 0-1.357.395v2.852h-.734V7.115h.603l.08.443c.262-.229.743-.451 1.312-.495l.096.587zM39.263 10.897V5.513h.735v3.348l1.514-1.746h.857l-1.662 1.869 1.73 1.913h-.865l-1.574-1.791v1.791zM43.61 9.288c.043.802.272 1.182 1.154 1.182a4.2 4.2 0 0 0 1.277-.213l.114.489a4.64 4.64 0 0 1-1.398.229c-1.567 0-1.882-.931-1.882-1.991 0-1.092.412-1.944 1.74-1.944 1.182 0 1.672.723 1.672 1.63v.618H43.61zm0-.503h1.967v-.138c0-.7-.253-1.127-.97-1.127-.813 0-.988.512-.997 1.265zM49.557 10.86c-.184.06-.612.115-.892.115-.744 0-1.06-.359-1.06-.946V7.632h-.75v-.517h.75v-.923l.736-.092v1.015h1.233l-.06.517H48.34v2.366c0 .352.096.457.499.457.176 0 .428-.03.656-.076l.061.48zM50.825 5.582c.297 0 .502.184.502.428 0 .243-.205.426-.502.426-.294 0-.498-.183-.498-.426 0-.244.204-.428.498-.428zm-.374 5.315h.75V7.115h-.75v3.782zM55.05 10.897V8.145c0-.344-.167-.52-.596-.52-.454 0-.908.132-1.224.254v3.018h-.734V7.115h.594l.061.336a3.055 3.055 0 0 1 1.487-.411c.743 0 1.145.365 1.145 1.036v2.821h-.734zM59.055 7.115h1.374v.435l-.58.098c.106.168.168.399.168.642 0 .785-.622 1.25-1.616 1.25a2.04 2.04 0 0 1-.457-.038c-.096.076-.19.185-.19.35 0 .183.112.267.392.267h.979c.76 0 1.233.42 1.233 1.014 0 .808-.822 1.212-1.986 1.212-1.136 0-1.75-.304-1.75-1.02 0-.459.352-.664.693-.808a.565.565 0 0 1-.28-.503c0-.344.271-.518.5-.635-.474-.198-.744-.577-.744-1.089 0-.808.532-1.25 1.61-1.25.243 0 .46.031.654.075m-1.383 3.53c-.2.145-.366.33-.366.632 0 .443.428.604 1.085.604.76 0 1.232-.174 1.232-.68 0-.289-.184-.526-.657-.526h-.943c-.13 0-.289-.014-.35-.03m.728-3.15c-.622 0-.92.222-.92.795 0 .57.34.793.92.793.575 0 .924-.244.924-.793 0-.548-.323-.795-.924-.795M26.913 16.63v1.892h-.75v-5.078h1.74c1.346 0 1.836.673 1.836 1.592 0 .925-.49 1.595-1.836 1.595h-.99zm0-.533h.963c.875 0 1.11-.434 1.11-1.06 0-.624-.235-1.06-1.11-1.06h-.963v2.12zM33.438 18.522h-.62l-.043-.312c-.245.166-.84.388-1.382.388-.929 0-1.296-.472-1.296-1.181 0-.747.428-1.137 1.348-1.137.542 0 1.023.123 1.26.216v-.581c0-.489-.175-.694-.823-.694-.385 0-.77.044-1.155.144l-.112-.526a5.34 5.34 0 0 1 1.346-.174c1.005 0 1.477.381 1.477 1.21v2.647zm-.733-1.594a4.819 4.819 0 0 0-1.156-.16c-.586 0-.734.244-.734.664 0 .465.174.686.682.686.524 0 .962-.176 1.208-.32v-.87zM36.754 15.273c-.49.084-.99.229-1.355.397v2.852h-.735V14.74h.602l.079.443c.262-.229.743-.45 1.313-.495l.096.585zM39.754 18.484c-.185.061-.614.114-.894.114-.742 0-1.057-.359-1.057-.946v-2.395h-.752v-.517h.752v-.923l.734-.092v1.015h1.234l-.062.517h-1.172v2.367c0 .347.097.458.5.458.174 0 .428-.032.655-.078l.062.48zM43.199 18.522v-2.75c0-.346-.165-.522-.594-.522-.455 0-.91.132-1.226.252v3.02h-.733V14.74h.594l.06.334c.351-.204.901-.41 1.488-.41.743 0 1.145.366 1.145 1.037v2.821h-.734zM45.648 16.913c.043.802.27 1.182 1.154 1.182a4.15 4.15 0 0 0 1.278-.213l.113.486a4.54 4.54 0 0 1-1.398.23c-1.568 0-1.881-.931-1.881-1.99 0-1.09.41-1.943 1.74-1.943 1.18 0 1.67.725 1.67 1.632v.616h-2.676zm0-.501h1.967v-.138c0-.703-.253-1.13-.97-1.13-.814 0-.988.51-.997 1.268zM51.445 15.273a5.78 5.78 0 0 0-1.353.397v2.852h-.735V14.74h.603l.078.443c.262-.229.743-.45 1.313-.495l.094.585zM21.115 5.02H6.852c-.49 0-.885.345-.885.771v12.437c0 .426.394.773.885.773h7.68v-5.416H12.44v-2.109h2.09V9.92c0-1.806 1.264-2.788 3.112-2.788.885 0 1.645.056 1.867.082v1.887h-1.281c-1.004 0-1.2.418-1.2 1.026v1.35h2.397l-.313 2.108H17.03v5.416h4.086c.489 0 .886-.347.886-.773V5.791c0-.426-.397-.771-.886-.771"></path></g></svg> 