<?xml version="1.0" encoding="UTF-8"?> <svg xmlns="http://www.w3.org/2000/svg" xmlns:xlink="http://www.w3.org/1999/xlink" width="89" height="28" viewBox="0 0 89 28"><defs><path id="a" d="M0 .26h20.992v21.866H0z"></path><path id="c" d="M.24.124h13.165v20.408H.239z"></path><path id="e" d="M0 28.276h87.487V.348H0z"></path></defs><g fill="none" fill-rule="evenodd" transform="translate(.5)"><g transform="translate(0 .088)"><mask id="b" fill="#fff"><use xlink:href="#a"></use></mask><path fill="#507FC0" d="M10.927 10.21v2.988h7.037c-.215 1.676-.766 2.903-1.603 3.766-1.03 1.044-2.633 2.186-5.434 2.186-4.333 0-7.72-3.547-7.72-7.944 0-4.398 3.387-7.945 7.72-7.945 2.334 0 4.045.935 5.302 2.138l2.07-2.102C16.552 1.572 14.206.26 10.927.26 4.99.26 0 5.168 0 11.194c0 6.025 4.99 10.932 10.927 10.932 3.207 0 5.625-1.069 7.516-3.061 1.939-1.968 2.549-4.75 2.549-6.985 0-.692-.048-1.336-.156-1.87h-9.91z" mask="url(#b)"></path></g><path fill="#E84537" d="M29.789 19.201c-2.107 0-3.926-1.761-3.926-4.276 0-2.539 1.82-4.276 3.926-4.276s3.925 1.737 3.925 4.276c0 2.515-1.819 4.276-3.925 4.276m0-11.334c-3.842 0-6.978 2.964-6.978 7.058 0 4.058 3.136 7.058 6.978 7.058 3.841 0 6.977-2.988 6.977-7.058 0-4.094-3.136-7.058-6.977-7.058"></path><g transform="translate(53.486 7.744)"><mask id="d" fill="#fff"><use xlink:href="#c"></use></mask><path fill="#507FC0" d="M7.001 11.458c-2.106 0-3.71-1.823-3.71-4.276 0-2.49 1.604-4.276 3.71-4.276 2.083 0 3.71 1.822 3.71 4.3.012 2.466-1.627 4.252-3.71 4.252zm3.507-9.755H10.4C9.718.877 8.402.124 6.738.124 3.268.124.239 3.197.239 7.182c0 3.96 3.028 7.058 6.499 7.058 1.664 0 2.98-.754 3.662-1.604h.108v.984c0 2.697-1.424 4.142-3.71 4.142-1.867 0-3.028-1.36-3.507-2.514L.634 16.365c.766 1.871 2.789 4.167 6.164 4.167 3.578 0 6.607-2.138 6.607-7.35V.489h-2.897v1.215z" mask="url(#d)"></path></g><path fill="#F8BB14" d="M45.347 19.201c-2.106 0-3.925-1.761-3.925-4.276 0-2.539 1.819-4.276 3.925-4.276 2.107 0 3.926 1.737 3.926 4.276 0 2.515-1.819 4.276-3.926 4.276m0-11.334c-3.841 0-6.977 2.964-6.977 7.058 0 4.058 3.136 7.058 6.977 7.058 3.842 0 6.978-2.988 6.978-7.058 0-4.094-3.136-7.058-6.978-7.058"></path><mask id="f" fill="#fff"><use xlink:href="#e"></use></mask><path fill="#35A853" d="M69.284 21.983h3.004V.639h-3.004z" mask="url(#f)"></path><path fill="#E84537" d="M81.347 10.516c1.233 0 2.287.643 2.634 1.554l-6.284 2.637c0-2.964 2.07-4.191 3.65-4.191m.216 8.685c-1.556 0-2.657-.717-3.375-2.138l9.3-3.9-.312-.8c-.575-1.58-2.346-4.496-5.948-4.496-3.579 0-6.559 2.855-6.559 7.058 0 3.96 2.944 7.058 6.894 7.058 3.184 0 5.027-1.98 5.792-3.122l-2.37-1.603c-.789 1.166-1.866 1.943-3.422 1.943" mask="url(#f)"></path></g></svg> 