<?xml version="1.0" encoding="UTF-8"?> <svg xmlns="http://www.w3.org/2000/svg" xmlns:xlink="http://www.w3.org/1999/xlink" width="180" height="32" viewBox="0 0 180 32"><defs><path id="a" d="M0 .01h39.439V7.27H0z"></path><path id="c" d="M.04.02h7.884v13.576H.04z"></path></defs><g fill="none" fill-rule="evenodd"><g transform="translate(.85 19.17)"><mask id="b" fill="#fff"><use xlink:href="#a"></use></mask><path fill="#FFF" d="M19.72 7.269c.405 0 .81-.109 1.173-.326l4.31-2.573a4.57 4.57 0 0 1 2.882-.62c5.237.624 8.918 1.648 10.002 1.974a.568.568 0 0 0 .614-.2c.177-.228.404-.593.566-1.117.161-.516.183-.942.167-1.236a.591.591 0 0 0-.414-.54c-1.7-.518-9.21-2.62-19.3-2.62C9.627.01 2.117 2.113.417 2.63a.591.591 0 0 0-.414.54c-.016.294.006.72.168 1.236.162.524.388.889.566 1.117.148.19.388.267.613.2 1.085-.326 4.766-1.35 10.003-1.974 1-.118 2.01.1 2.88.62l4.311 2.573c.363.217.769.326 1.174.326" mask="url(#b)"></path></g><path fill="#FFF" d="M13.336 11.945c.238.423.62.708 1.045.825.426.118.895.068 1.306-.177.412-.244.688-.638.802-1.076.114-.438.066-.92-.172-1.344l-3.89-6.94c-.126-.222-.369-.312-.618-.293-.308.025-.746.189-1.258.494-.513.304-.87.613-1.045.874-.14.213-.186.475-.061.698l3.891 6.939zM9.791 16.92c.41.246.877.296 1.3.178a1.717 1.717 0 0 0 1.041-.829c.237-.425.285-.91.171-1.35a1.767 1.767 0 0 0-.798-1.08l-6.71-4.025c-.216-.128-.469-.082-.675.064-.253.18-.552.55-.846 1.08-.295.53-.453.983-.478 1.3-.018.259.07.51.285.639l6.71 4.024zM22.379 9.524c0 .486-.193.926-.504 1.245a1.694 1.694 0 0 1-2.431 0 1.777 1.777 0 0 1-.504-1.245V1.56c0-.255.166-.457.391-.568.279-.136.738-.22 1.328-.22.591 0 1.05.084 1.329.22.225.111.39.313.39.568v7.964zM27.833 11.945c-.237.423-.62.708-1.045.825a1.673 1.673 0 0 1-1.306-.177 1.761 1.761 0 0 1-.802-1.076 1.813 1.813 0 0 1 .172-1.344l3.892-6.94c.124-.222.367-.312.617-.293.307.025.746.189 1.258.494.512.304.87.613 1.044.874.141.213.186.475.062.698l-3.892 6.939zM31.378 16.92c-.41.246-.877.296-1.3.178a1.718 1.718 0 0 1-1.04-.829 1.835 1.835 0 0 1-.172-1.35c.113-.44.389-.835.798-1.08l6.711-4.025c.215-.128.468-.082.674.064.253.18.552.55.847 1.08.294.53.453.983.477 1.3.018.259-.07.51-.284.639l-6.71 4.024zM74.246 11.44h3.24c.119 0 .226.075.269.189l3.23 8.526 3.134-8.523a.29.29 0 0 1 .27-.192h3.183c.208 0 .347.22.264.416l-7.925 18.72a.289.289 0 0 1-.264.178l-2.804.01c-.207 0-.348-.218-.266-.414l2.704-6.536-5.298-11.954c-.087-.197.053-.42.263-.42M115.07 18.054c0 2.293 1.365 4.058 3.538 4.058s3.59-1.526 3.59-3.888-1.367-4.162-3.678-4.162c-2.185 0-3.45 1.773-3.45 3.992m7.04-4.738v-1.6c0-.164.128-.297.287-.297h2.85c.16 0 .288.133.288.298v12.74a.293.293 0 0 1-.287.299h-2.851a.293.293 0 0 1-.288-.299V22.78a4.798 4.798 0 0 1-4.13 2.264c-4.178 0-6.348-3.309-6.348-7.015 0-4.824 3.224-6.898 6.247-6.898 1.985 0 3.366.973 4.231 2.186M128.076 24.436v-12.72c0-.165.128-.298.287-.298h2.84c.159 0 .287.133.287.298v1.727c.676-1.213 1.918-2.313 4.053-2.313 2.201 0 4.643 1.127 4.643 6.3v7.006a.292.292 0 0 1-.286.298h-2.841a.292.292 0 0 1-.286-.298v-6.954c0-1.249-.295-3.385-2.422-3.385-2.127 0-2.861 1.94-2.861 3.737v6.602a.292.292 0 0 1-.286.298h-2.841a.292.292 0 0 1-.287-.298M142.728 24.436v-12.72c0-.165.128-.298.286-.298h2.84c.159 0 .287.133.287.298v1.727c.676-1.213 1.918-2.313 4.053-2.313 2.201 0 4.643 1.127 4.643 6.3v7.006a.292.292 0 0 1-.286.298h-2.84a.292.292 0 0 1-.287-.298v-6.954c0-1.249-.295-3.385-2.422-3.385-2.127 0-2.861 1.94-2.861 3.737v6.602a.292.292 0 0 1-.286.298h-2.841a.292.292 0 0 1-.286-.298"></path><g transform="translate(172.478 11.13)"><mask id="d" fill="#fff"><use xlink:href="#c"></use></mask><path fill="#FFF" d="M.328.305h2.78c.159 0 .287.133.287.297v2.624C3.955.616 6.115-.27 7.701.1c.13.03.223.152.223.29v2.898a.29.29 0 0 1-.346.29c-2.922-.592-4.107 1.035-4.107 3.326V13.3a.292.292 0 0 1-.288.297H.328a.293.293 0 0 1-.288-.298V.602C.04.438.169.305.328.305" mask="url(#d)"></path></g><path fill="#FFF" d="M55.276 14.333l-2.066-.743c-.718-.259-1.959-1-1.959-2.194 0-1.195.795-1.934 2.377-1.934 1.46 0 2.267.742 2.792 1.917.071.16.258.224.405.136l2.338-1.402a.304.304 0 0 0 .119-.38c-.706-1.615-2.352-3.55-5.622-3.55-3.645 0-5.917 2.252-5.917 5.199s1.873 4.475 4.404 5.37l2.083.735c1.49.526 2.177 1.223 2.177 2.191 0 .969-.581 2.1-2.91 2.1-2.123 0-2.879-1.165-3.3-2.276a.281.281 0 0 0-.41-.146l-2.447 1.467a.306.306 0 0 0-.123.372c.934 2.419 3.514 3.848 6.418 3.848 3.4 0 6.269-1.804 6.269-5.432 0-3.627-3.75-4.963-4.628-5.278M74.196 21.285a.282.282 0 0 0-.417-.092c-1.109.835-2.42.852-3.394-.723l-1.83-2.953 4.34-5.583c.15-.195.016-.484-.225-.484h-3.396a.285.285 0 0 0-.233.123L65.286 16.9V6.172a.293.293 0 0 0-.289-.298h-2.862a.293.293 0 0 0-.288.298V24.46c0 .164.13.297.288.297h2.862c.16 0 .289-.133.289-.297v-5.944l2.638 4.292c.98 1.595 2.38 2.236 3.868 2.236 1.418 0 2.33-.393 3.422-1.484a.307.307 0 0 0 .05-.364l-1.068-1.91zM94.612 17.047c-.913-.35-1.227-.47-1.922-.738-.696-.266-1.294-.651-1.294-1.228 0-.576.507-1.215 1.55-1.215.912 0 1.468.377 1.774 1.024a.282.282 0 0 0 .402.128l2.006-1.202a.305.305 0 0 0 .106-.408c-.55-.993-1.643-2.278-4.262-2.278-3.217 0-4.867 1.93-4.867 4.058s1.68 3.131 3.215 3.775c1.736.727 1.853.776 2.065.866.536.224 1.176.57 1.176 1.213 0 .642-.7 1.2-1.803 1.2-1.015 0-2.15-.429-2.618-1.633a.283.283 0 0 0-.41-.148l-2.024 1.213a.304.304 0 0 0-.125.367c.598 1.593 2.352 3.002 5.177 3.002 3.074 0 5.12-1.704 5.12-4.096 0-2.393-1.534-3.236-3.266-3.9M106.292 14.327c1.278 0 2.23.403 3.106 1.067a.281.281 0 0 0 .42-.09l1.177-2.121a.307.307 0 0 0-.09-.398c-1.222-.86-2.73-1.655-4.777-1.655-2.019 0-3.903.582-5.246 1.979-1.343 1.397-1.958 3.049-1.958 5.017 0 2.381.939 3.885 1.97 4.959 1.033 1.074 2.876 1.958 5.234 1.958 2.13 0 3.71-.912 4.776-1.664a.306.306 0 0 0 .086-.396l-1.17-2.107a.28.28 0 0 0-.415-.093 5.196 5.196 0 0 1-3.113 1.064c-1.392 0-3.93-.829-3.93-3.76s2.526-3.76 3.93-3.76M163.81 13.997c1.636 0 3.136 1.022 3.363 2.867h-6.865c.445-2 1.865-2.867 3.501-2.867m.555 8.089c-1.149 0-2.23-.277-3.017-.936-.788-.659-1.153-1.328-1.153-2.127h10.203c.161 0 .29-.139.287-.306-.06-3.15-1.04-4.633-1.993-5.623-.983-1.022-2.663-1.964-4.856-1.964-2.194 0-3.906.84-5.051 2.03-1.146 1.19-2.003 2.693-2.003 4.986 0 2.293.89 3.797 1.977 4.928 1.088 1.13 2.852 1.97 5.39 1.97 2.412 0 4.421-.886 5.889-2.617a.306.306 0 0 0-.073-.456l-2.032-1.219a.276.276 0 0 0-.334.035 4.798 4.798 0 0 1-3.234 1.299"></path></g></svg> 