<?xml version="1.0" encoding="UTF-8"?> <svg xmlns="http://www.w3.org/2000/svg" xmlns:xlink="http://www.w3.org/1999/xlink" width="105" height="28" viewBox="0 0 105 28"><defs><path id="a" d="M.057.185h13.48v12.671H.057z"></path><path id="c" d="M.057.239h13.48v12.67H.057z"></path><path id="e" d="M0 28.44h103.976V.28H0z"></path></defs><g fill="none" fill-rule="evenodd" transform="translate(.5)"><g transform="translate(16.421 .095)"><mask id="b" fill="#fff"><use xlink:href="#a"></use></mask><path fill="#F9C224" d="M8.07 12.856h5.467c-.34-3.247-1.849-6.258-4.336-8.596C6.715 1.923 3.511.504.057.185v5.139c4.118.605 7.37 3.662 8.013 7.532" mask="url(#b)"></path></g><path fill="#E62D30" d="M13.48 5.419V.281C10.025.6 6.822 2.019 4.335 4.356 1.85 6.693.34 9.704 0 12.95h5.467c.643-3.87 3.895-6.927 8.013-7.532"></path><g transform="translate(16.421 15.53)"><mask id="d" fill="#fff"><use xlink:href="#c"></use></mask><path fill="#00A64A" d="M.057 7.771v5.139c3.454-.32 6.658-1.738 9.144-4.076 2.487-2.337 3.997-5.348 4.336-8.595H8.07C7.427 4.109 4.175 7.166.057 7.771" mask="url(#d)"></path></g><path fill="#007FCA" d="M5.467 15.77H0a13.509 13.509 0 0 0 2.72 6.804L.504 27.968l5.738-2.085a15.482 15.482 0 0 0 7.239 2.558v-5.139c-4.118-.605-7.37-3.662-8.013-7.532"></path><path fill="#656464" d="M39.055 18.11v5.258h-.508V18.11h-1.609v-.416h3.718v.416zM42.731 19.435c-.883 0-1.425.681-1.45 1.715l2.709-.368c-.008-.916-.508-1.347-1.259-1.347m1.726 1.63l-3.151.438c.066 1.035.683 1.56 1.634 1.56.45 0 .933-.11 1.217-.267l.166.36c-.3.165-.833.29-1.4.29-1.284 0-2.092-.76-2.092-2.193 0-1.301.725-2.186 1.9-2.186 1.042 0 1.734.634 1.734 1.747 0 .078 0 .156-.008.25M48.416 23.368v-2.883c0-.627-.409-1.035-1.226-1.035-.45 0-.841.079-1.091.173v3.745h-.492v-4.012c.408-.172.967-.29 1.583-.29 1.117 0 1.718.525 1.718 1.395v2.907h-.492zM51.942 23.446c-.909 0-1.893-.619-1.893-2.193 0-1.575.984-2.186 1.893-2.186.4 0 .775.101 1.066.29l-.175.344a1.584 1.584 0 0 0-.858-.243c-.684 0-1.426.47-1.426 1.795 0 1.324.75 1.794 1.426 1.794.333 0 .625-.094.858-.243l.175.352c-.291.188-.666.29-1.066.29M55.659 19.435c-.883 0-1.425.681-1.45 1.715l2.708-.368c-.008-.916-.508-1.347-1.258-1.347m1.725 1.63l-3.15.438c.066 1.035.683 1.56 1.633 1.56.45 0 .934-.11 1.217-.267l.167.36c-.3.165-.833.29-1.4.29-1.284 0-2.093-.76-2.093-2.193 0-1.301.726-2.186 1.901-2.186 1.042 0 1.734.634 1.734 1.747 0 .078 0 .156-.009.25M61.344 23.368v-2.883c0-.627-.409-1.035-1.226-1.035-.45 0-.842.079-1.092.173v3.745h-.492v-4.012c.409-.172.967-.29 1.584-.29 1.117 0 1.717.525 1.717 1.395v2.907h-.491zM64.57 23.407c-.668 0-1.143-.345-1.143-1.058v-2.852h-.7v-.352h.7v-1.05l.475-.173v1.223h1.017v.352h-1.017v2.837c0 .47.342.666.742.666a.92.92 0 0 0 .275-.04v.4a.973.973 0 0 1-.35.047M69.462 23.446c-.5 0-.975-.094-1.409-.29l.192-.407c.358.172.767.266 1.209.266.858 0 1.483-.407 1.483-1.128 0-1.41-2.825-1.066-2.825-2.797 0-.925.766-1.473 1.808-1.473.492 0 .917.102 1.284.29l-.192.391a2.313 2.313 0 0 0-1.084-.258c-.758 0-1.308.376-1.308 1.034 0 1.38 2.834 1.042 2.834 2.805 0 .98-.834 1.567-1.992 1.567M74.296 19.45c-.925 0-1.359.768-1.359 1.802 0 1.035.434 1.803 1.36 1.803.924 0 1.358-.768 1.358-1.803 0-1.034-.434-1.802-1.359-1.802m0 3.996c-1.217 0-1.85-.948-1.85-2.194 0-1.245.633-2.186 1.85-2.186s1.85.94 1.85 2.186-.633 2.194-1.85 2.194M79.006 23.446c-.909 0-1.893-.619-1.893-2.193 0-1.575.984-2.186 1.893-2.186.4 0 .775.101 1.067.29l-.176.344a1.583 1.583 0 0 0-.858-.243c-.684 0-1.425.47-1.425 1.795 0 1.324.75 1.794 1.425 1.794.333 0 .625-.094.858-.243l.176.352c-.292.188-.667.29-1.067.29"></path><mask id="f" fill="#fff"><use xlink:href="#e"></use></mask><path fill="#656464" d="M81.217 23.368h.71v-4.223h-.71v4.223zm.362-5.163c-.277 0-.506-.142-.506-.322 0-.18.229-.32.506-.32s.494.14.494.32-.217.322-.494.322zM85.59 21.08c-1.075.055-2.317.11-2.317 1.097 0 .54.417.9 1.292.9.384 0 .842-.07 1.025-.156V21.08zm-1.017 2.366c-1.175 0-1.775-.493-1.775-1.261 0-1.23 1.434-1.387 2.792-1.457v-.369c0-.713-.508-.924-1.175-.924-.417 0-.917.125-1.2.266l-.15-.345c.325-.149.875-.29 1.383-.29.942 0 1.617.353 1.617 1.324v2.766c-.308.165-.933.29-1.492.29zM87.424 23.368h.492v-6.15h-.492zM93.567 18.73c-.108-.298-.175-.557-.2-.643h-.017a7.243 7.243 0 0 1-.191.642l-.934 2.453h2.268l-.926-2.453zm1.76 4.638l-.684-1.81h-2.551l-.692 1.81h-.534l2.21-5.673h.574l2.21 5.673h-.534zM99.51 19.607c-.15-.055-.542-.117-.85-.117-1.05 0-1.6.775-1.6 1.825 0 1.042.558 1.747 1.583 1.747.317 0 .725-.086.867-.164v-3.29zm-.858 3.84c-1.326 0-2.084-.855-2.084-2.124 0-1.285.742-2.217 2.067-2.217.35 0 .7.063.875.125v-2.014h.492v5.94c-.242.14-.809.29-1.35.29zM102.336 23.446c-.442 0-.9-.102-1.284-.29l.192-.36c.3.157.708.266 1.083.266.659 0 1.1-.305 1.1-.783 0-.51-.433-.698-1.016-.901-.667-.235-1.242-.494-1.242-1.223 0-.61.516-1.088 1.425-1.088.442 0 .867.101 1.184.29l-.192.344a1.816 1.816 0 0 0-.958-.259c-.61 0-.96.322-.96.713 0 .51.434.682.968.87.7.251 1.3.494 1.3 1.262 0 .697-.609 1.16-1.6 1.16M52.324 12.921c-.498.188-.957.35-1.372.49V8.633h-2.3v.61h1.15v4.538c-.727.219-1.15.32-1.15.32l.414.888a30.832 30.832 0 0 0 3.258-1.56v-.507zM51.846 6.712s-.91-.418-2.84-1.086l-.354.933 2.926.589.268-.436z" mask="url(#f)"></path><path fill="#656464" d="M58.535 12.49c-.09.356-.335 1.3-.592 1.3-.301 0-.525-1.101-.525-2.539 0-1.574.324-4.198.738-5.551h-5.832v.61h1.599v2.242s0 .424-.059 1.054a25.675 25.675 0 0 1-1.676.483l.414.888c.41-.168.797-.337 1.152-.5-.22 1.395-.73 3.184-1.908 4.054l.51.351s2.207-1.244 2.642-5.005c.539-.274.862-.459.862-.459v-.507c-.281.106-.55.204-.806.295.011-.212.02-.428.02-.654V6.31h1.74c-.1.571-.456 2.727-.456 4.595 0 1.301.134 4.03 1.329 4.03.625 0 1.228-.777 1.54-1.816a3.526 3.526 0 0 1-.692-.63M40.574 13.638h4.349v-.61h-4.349z" mask="url(#f)"></path><path fill="#656464" d="M42.435 8.733h1.735c.18.26.41.529.697.794h-.042v-.008h-3.179c.302-.253.562-.517.79-.786zm-2.482 1.26v-1.26h1.401a6.388 6.388 0 0 1-1.4 1.26zm-1.73-1.87h.837V6.17h-.837v1.954zm-.009 2.575a8.78 8.78 0 0 0 .009-.47V8.733h.837v1.965h-.846zm5.07-3.245h.273c.042.157.122.393.256.67h-.92c.152-.228.281-.453.392-.67zm3.377 3.185l.413-.41s-1.088-.433-1.835-1.495h1.59v-.61H44.89a3.642 3.642 0 0 1-.23-.67h1.788v-.61h-1.29c.688-.522 1.196-.98 1.196-.98l-1.078-.557c-.186.657-.804 1.28-.804 1.28l.382.257h-1.298c.31-.8.36-1.381.36-1.381l-1.32-.177a5.38 5.38 0 0 1-.225 1.558h-.91l.823-.54c-.65-.62-1.307-1.028-1.307-1.028l-.502.325c.538.624.727 1.054.79 1.243h-.933v.61h1.813c-.106.24-.225.463-.354.67h-1.839V5.558h-2.657v4.964c0 2.487-.335 3.274-.726 4.009l.436.294c.878-1.197 1.087-2.1 1.189-3.517h.865v2.74c0 .294 0 .41-.257.41-.134 0-.435-.022-.792-.095l.19.546h.982c.748 0 .77-.4.77-.819v-3.522a7.167 7.167 0 0 0 1.587-.963l-.074.525h2.546l-.234 1.652h-1.43l.172-1.218h-1.132l-.256 1.828h4.33v1.346c0 .77-.534.728-.651.728-.118 0-.952-.054-.952-.054l.19.522h1.365c1.18 0 1.146-1.08 1.146-1.274v-1.878H44.91L45.19 9.8a5.96 5.96 0 0 0 1.471.838zM67.851 13.97V9.11h2.122V8.5H67.85V5.558h-1.15V8.5h-2.122v.61H66.7v4.86h-2.834v.61h6.481v-.61z" mask="url(#f)"></path><path fill="#656464" d="M64.844 11.57l.413-.41s-1.153-.457-1.9-1.588c.965-1.2 1.186-2.119 1.186-2.119H63.187V5.558h-1.15v1.895h-1.985v.61h2.845c-.696 2.394-3.092 3.68-3.092 3.68l.518.389c.67-.397 1.235-.808 1.714-1.213v3.99h1.15v-4.327c.425.364.964.71 1.657.987M81.626 6.646h-4.54v-1.36h-1.15v1.36h-4.54v.61h10.23zM71.783 9.795l.434.435s1.836-.557 3.533-1.986l-1.145-.791s-.907 1.517-2.822 2.342M80.35 10.23l.889-.984c-1.402-.983-3.495-1.633-3.495-1.633l-.375.408c1.955.947 2.981 2.209 2.981 2.209M81.72 14.516c-1.976-.176-3.38-.754-4.38-1.457.906-.724 1.66-1.71 2.01-3.057l-1.268-.459s-.215 1.47-1.571 2.82c-1.356-1.35-1.572-2.82-1.572-2.82l-1.269.46c.35 1.346 1.105 2.332 2.01 3.056-.998.703-2.402 1.281-4.379 1.457l.365.52s2.622-.09 4.845-1.408c2.222 1.319 4.844 1.408 4.844 1.408l.365-.52zM96.097 13.876h5.423v-2.22h-5.423v2.22zm-1.15 1.033h1.15v-.423h5.423v.423h1.151v-3.863h-7.725v3.863zM99.443 9.238v-1.9h3.792v-.61h-3.792V5.287h-1.15v1.443h-1.929c.21-.308.414-.634.594-.971l-1.436-.472s-.558 2.012-1.546 3.366l.553.26s.673-.642 1.39-1.573h2.374v1.899h-4.504v.61h10.187v-.61h-4.533zM88.986 5.286h-1.151v.832H83.82v4.404c0 2.487-.592 3.335-1.012 3.932l.435.294c.844-.835 1.591-2.054 1.691-3.512l.011-.473c.009-.189.011-2.765.011-4.034h8.483v-.61h-4.453v-.833z" mask="url(#f)"></path></g></svg> 