<?xml version="1.0" encoding="UTF-8"?> <svg xmlns="http://www.w3.org/2000/svg" width="68" height="56" viewBox="0 0 68 56"><g fill="#FFF" fill-rule="evenodd"><path d="M55.87.16v55.767H0V.16h55.87zM8.906 40.948c-2.648 0-4.778 1.8-4.778 5.061 0 2.736 1.558 4.806 4.583 4.806 1.052 0 1.883-.227 2.234-.41l-.285-1.702c-.403.185-1.052.312-1.662.312-1.754 0-2.793-1.205-2.793-3.12 0-2.14 1.22-3.174 2.779-3.174.715 0 1.273.17 1.662.354l.416-1.701c-.35-.199-1.13-.426-2.156-.426zm13.364 2.623c-1.074 0-1.9.305-2.367.565l-.1.059.363 1.375a3.474 3.474 0 0 1 1.753-.51c.917 0 1.131.464 1.153.826l.002.066v.086c-2.246 0-3.726.85-3.726 2.651 0 1.106.766 2.126 2.051 2.126.691 0 1.294-.25 1.71-.718l.109-.133h.039l.116.696h1.78c-.07-.336-.097-.866-.103-1.43l-.002-.244v-2.423c0-1.63-.662-2.992-2.778-2.992zm22.413-.015c-2.195 0-3.207 1.943-3.207 3.702 0 2.182 1.233 3.543 3.388 3.543.75 0 1.45-.108 2.049-.335l.25-.105-.26-1.46a4.832 4.832 0 0 1-1.753.298c-.868 0-1.632-.376-1.773-1.177l-.02-.155 4.091.014c.026-.171.065-.497.065-.865 0-1.716-.779-3.46-2.83-3.46zm5.986-2.962h-1.973V50.66h1.973V40.594zm-12.687 2.977c-.998 0-1.62.586-1.907 1.033l-.053.087h-.04l-.09-.964h-1.714c.022.535.044 1.143.05 1.85l.002.362v4.72h1.973v-3.998c0-.198.013-.397.065-.538.143-.397.468-.808 1.013-.808.672 0 .965.54.997 1.348l.003.155v3.842h1.973v-4.097c0-2.042-.973-2.992-2.272-2.992zm-7.61 0c-.998 0-1.62.586-1.907 1.033l-.053.087h-.04l-.09-.964h-1.714c.022.535.044 1.143.05 1.85l.001.362v4.72h1.974v-3.998c0-.198.013-.397.066-.538.142-.397.467-.808 1.012-.808.672 0 .965.54.997 1.348l.003.155v3.842h1.973v-4.097c0-2.042-.973-2.992-2.272-2.992zm-16.244-2.977h-1.974V50.66h1.974v-4.112c0-.156.013-.34.065-.468.142-.397.467-.765.986-.765.697 0 .991.553 1.023 1.374l.003.156v3.815h1.974v-4.04c0-2.1-.96-3.049-2.22-3.049-.364 0-.727.099-1.027.27a2.149 2.149 0 0 0-.647.544l-.131.179h-.026v-3.97zm9.012 6.79v.752c0 .128-.013.255-.039.368-.13.44-.546.795-1.026.795-.442 0-.78-.27-.78-.823 0-.821.806-1.092 1.845-1.092zm21.439-2.396c.843 0 1.076.792 1.101 1.31l.002.094h-2.337c.052-.567.39-1.404 1.234-1.404zm-13.36-16.267l-1.934.583v1.308h-.844v1.591h.844v2.856c0 .982.181 1.65.545 2.061.324.356.857.597 1.493.597.477 0 .905-.065 1.17-.147l.103-.037-.013-1.635a2.2 2.2 0 0 1-.584.057c-.546 0-.752-.334-.777-1.06l-.003-.162v-2.53h1.416v-1.591h-1.416V28.72zm-6.456 1.735c-1.073 0-1.9.305-2.366.566l-.101.059.363 1.378a3.47 3.47 0 0 1 1.753-.511c.917 0 1.132.466 1.154.828l.002.067v.085c-2.246 0-3.727.853-3.727 2.658 0 1.109.767 2.131 2.052 2.131.69 0 1.294-.25 1.71-.719l.108-.133h.039l.116.696h1.78c-.068-.336-.097-.867-.103-1.433l-.002-.244v-2.43c0-1.633-.661-2.998-2.778-2.998zm-6.519-.015c-2.194 0-3.207 1.947-3.207 3.709 0 2.189 1.233 3.554 3.389 3.554.75 0 1.45-.11 2.049-.337l.25-.104-.26-1.464c-.533.2-1.078.298-1.753.298-.868 0-1.632-.378-1.773-1.18l-.019-.155 4.09.014c.026-.17.065-.499.065-.867 0-1.72-.78-3.468-2.83-3.468zm25.987 0c-2.195 0-3.207 1.947-3.207 3.709 0 2.189 1.233 3.554 3.388 3.554.75 0 1.45-.11 2.05-.337l.25-.104-.26-1.464c-.533.2-1.079.298-1.753.298-.868 0-1.633-.378-1.774-1.18l-.019-.155 4.09.014c.027-.17.065-.499.065-.867 0-1.72-.778-3.468-2.83-3.468zm7.505.015c-.584 0-1.294.374-1.648 1.265l-.065.185h-.053l-.077-1.294h-1.689c.036.536.05 1.132.052 1.991v.296l-.012 4.662h1.973v-3.51c0-.185.013-.341.04-.483.13-.683.622-1.094 1.35-1.094.165 0 .294.015.42.035l.125.022v-2.034a1.877 1.877 0 0 0-.416-.041zM35.752 27.47h-1.974v10.09h1.974v-4.12c0-.158.012-.342.065-.471.143-.398.467-.767.986-.767.697 0 .991.555 1.023 1.378l.003.157v3.823h1.974v-4.05c0-2.104-.961-3.055-2.22-3.055-.364 0-.727.099-1.026.27-.26.14-.484.333-.67.574l-.109.15h-.026v-3.98zm-29.768.512H3.868l2.078 9.578h2.168l.831-4.12c.173-.806.301-1.572.43-2.43l.076-.527h.027c.087.911.2 1.685.333 2.478l.082.478.74 4.121h2.142l2.26-9.578h-2.012l-.715 3.907c-.145.92-.299 1.824-.421 2.694l-.085.646h-.026a65.168 65.168 0 0 0-.357-2.548l-.11-.663-.702-4.036H8.503l-.74 3.907c-.184.995-.358 1.96-.494 2.864l-.077.534h-.026a174.4 174.4 0 0 0-.436-2.871l-.083-.498-.663-3.936zm19.649 6.294v.754c0 .129-.013.257-.039.37-.13.442-.546.796-1.026.796-.44 0-.779-.27-.779-.824 0-.825.805-1.096 1.844-1.096zm-7.493-2.4c.844 0 1.077.792 1.102 1.312l.002.094h-2.337c.052-.569.39-1.406 1.233-1.406zm25.987 0c.843 0 1.077.792 1.101 1.312l.003.094h-2.338c.053-.569.39-1.406 1.234-1.406zM21.88 17.31c-2.194 0-3.207 1.942-3.207 3.7 0 2.185 1.234 3.546 3.39 3.546.749 0 1.45-.109 2.047-.335l.25-.105-.26-1.46c-.532.199-1.077.297-1.752.297-.868 0-1.632-.376-1.773-1.177l-.02-.155 4.091.014c.026-.17.065-.497.065-.865 0-1.717-.779-3.46-2.831-3.46zM13.4 14.347h-1.974v10.067H13.4v-4.11c0-.158.013-.343.065-.47.142-.397.467-.765.986-.765.697 0 .991.552 1.023 1.374l.003.157v3.814h1.974v-4.04c0-2.1-.96-3.05-2.22-3.05-.364 0-.727.1-1.026.27a2.16 2.16 0 0 0-.648.544l-.131.179H13.4v-3.97zm-2.806.51H3.868v1.816h2.363v7.741h1.974v-7.741h2.39v-1.815zm11.182 3.886c.843 0 1.076.79 1.101 1.31l.002.093h-2.337c.052-.567.39-1.403 1.234-1.403zM61.371 3.834h1.11c.11 0 .166 0 .27.023.476 0 .778.102 1.019.246.275.16.406.428.406.845 0 .355-.131.634-.366.8-.24.103-.583.2-1.06.2h-1.379V3.834zm0 2.726h1.38v.034l1.254 2.56h1.018l-1.322-2.731a1.81 1.81 0 0 0 1.014-.503c.234-.274.366-.635.366-1.052 0-.566-.195-.965-.601-1.24-.367-.234-.95-.372-1.73-.405h-2.29v5.932h.911V6.56z"></path><path d="M58.542 4.43a5.621 5.621 0 0 1 1.002-1.51 4.89 4.89 0 0 1 1.494-.973c.54-.199 1.1-.343 1.713-.343h.27a5.61 5.61 0 0 1 1.522.343 4.685 4.685 0 0 1 1.483 1.007c.447.44.744.903.98 1.475a4.46 4.46 0 0 1 .348 1.754c0 .651-.114 1.251-.349 1.777a3.402 3.402 0 0 1-.98 1.423c-.429.446-.943.778-1.523 1.012-.463.2-.973.303-1.482.337h-.27a4.404 4.404 0 0 1-1.746-.337 4.783 4.783 0 0 1-1.494-1.012 3.533 3.533 0 0 1-.968-1.474 4.231 4.231 0 0 1-.372-1.726c0-.6.133-1.177.372-1.754m.567 5.36a5.128 5.128 0 0 0 1.695 1.143 4.64 4.64 0 0 0 1.947.406c.103 0 .165-.034.27-.034.572-.03 1.155-.131 1.694-.372a5.343 5.343 0 0 0 1.723-1.143c.476-.475.848-1.006 1.077-1.652.274-.599.406-1.252.406-1.954 0-.697-.132-1.343-.406-1.977a4.353 4.353 0 0 0-1.077-1.658c-.509-.491-1.042-.88-1.69-1.12a5.1 5.1 0 0 0-1.728-.4h-.27c-.698 0-1.34.142-1.946.383-.646.257-1.19.646-1.667 1.103-.458.498-.87 1.08-1.139 1.72a5.23 5.23 0 0 0-.372 1.949c0 .674.104 1.314.372 1.954.27.6.642 1.177 1.111 1.652"></path></g></svg> 