<?xml version="1.0" encoding="UTF-8"?> <svg xmlns="http://www.w3.org/2000/svg" width="123" height="36" viewBox="0 0 123 36"><g fill="none" fill-rule="nonzero"><path fill="#FFF" fill-opacity=".4" d="M1.238 30.755l.117.332a5.892 5.892 0 0 1-.117-.332zm4.7-7.54c.21-1.791.919-2.79 2.252-3.819 1.913-1.387 4.29-.608 4.29-.608v-4.665a9.895 9.895 0 0 1 1.732.108v6.003s-2.383-.784-4.29.608c-1.328 1.029-2.043 2.029-2.248 3.819-.007.97.167 2.243.978 3.335a6.973 6.973 0 0 1-.613-.366c-1.782-1.238-2.108-3.1-2.1-4.416h-.001zM24.074 5.498c-1.31-1.487-1.81-2.997-1.991-4.056h1.65s-.325 2.775 2.072 5.5l.036.036a9.189 9.189 0 0 1-1.767-1.482V5.5zm7.96 4.228v5.882s-2.108-.086-3.672-.496c-2.18-.575-3.576-1.46-3.576-1.46s-.97-.632-1.043-.676v12.149c0 .676-.18 2.366-.724 3.774a11.071 11.071 0 0 1-5.707 6.04c-2.122.992-3.991.97-4.548.992 0 0-3.223.129-6.13-1.82a12.11 12.11 0 0 1-1.753-1.458l.014.014c2.905 1.956 6.13 1.819 6.13 1.819.558-.021 2.426 0 4.548-.993a11.389 11.389 0 0 0 3.694-2.738 11.356 11.356 0 0 0 2.014-3.3c.542-1.408.724-3.098.724-3.774V11.538c.08.044 1.042.677 1.042.677s1.399.884 3.576 1.459c1.564.406 3.671.496 3.671.496V9.562c.726.165 1.342.208 1.74.165z"></path><path fill="#FFF" d="M30.295 9.555v4.608s-2.107-.086-3.671-.496c-2.18-.575-3.576-1.46-3.576-1.46s-.97-.632-1.042-.676v12.15c0 .676-.182 2.366-.724 3.774a11.356 11.356 0 0 1-2.014 3.3 11.389 11.389 0 0 1-3.694 2.738c-2.122.993-3.99.972-4.548.993 0 0-3.223.129-6.13-1.82l-.014-.013a12.317 12.317 0 0 1-.861-.971c-.928-1.172-1.493-2.552-1.635-2.948v-.007c-.23-.682-.709-2.332-.643-3.926.115-2.81 1.071-4.543 1.328-4.974.67-1.18 1.54-2.235 2.571-3.12.91-.763 1.94-1.37 3.049-1.8a10.27 10.27 0 0 1 3.795-.79v4.665s-2.382-.784-4.29.603c-1.329 1.029-2.044 2.028-2.253 3.818-.008 1.319.318 3.177 2.1 4.422.21.136.409.258.613.366.313.42.693.786 1.124 1.086 1.745 1.143 3.2 1.222 5.069.482 1.246-.497 2.18-1.61 2.615-2.855.275-.777.268-1.553.268-2.358v-22.9h4.346a8.174 8.174 0 0 0 1.99 4.055 9.643 9.643 0 0 0 1.768 1.482c.188.203 1.166 1.217 2.426 1.84.647.323 1.33.57 2.035.734l-.002-.002z"></path><path fill="#00F3E8" d="M.652 27.312l.108.305a2.847 2.847 0 0 1-.108-.305z"></path><path fill="#FFF" fill-opacity=".2" d="M8.69 14.917a10.718 10.718 0 0 0-3.055 1.798 11.64 11.64 0 0 0-2.57 3.128c-.254.43-1.21 2.157-1.328 4.975-.066 1.595.42 3.245.643 3.924v.007c.145.389.715 1.777 1.635 2.948.27.339.557.662.861.97a12.14 12.14 0 0 1-2.6-2.415A11.504 11.504 0 0 1 .652 27.32v-.014c-.232-.683-.715-2.332-.645-3.932.117-2.811 1.072-4.544 1.328-4.975a11.659 11.659 0 0 1 2.572-3.128 10.78 10.78 0 0 1 3.056-1.797 10.684 10.684 0 0 1 2.159-.633 10.82 10.82 0 0 1 3.371-.05v1.337a10.28 10.28 0 0 0-3.802.79z"></path><path fill="#FFF" fill-opacity=".2" d="M22.083 1.445h-4.346V24.35c0 .805 0 1.581-.268 2.358-.442 1.236-1.376 2.358-2.615 2.855-1.869.747-3.331.66-5.07-.482A4.694 4.694 0 0 1 8.662 28c1.484.785 2.81.77 4.454.117 1.246-.497 2.18-1.618 2.614-2.855.276-.777.27-1.553.27-2.358V0h6.003c-.006 0-.071.568.08 1.445zm8.212 6.837v1.273a9.284 9.284 0 0 1-2.035-.732c-1.253-.62-2.23-1.633-2.426-1.841a8.2 8.2 0 0 0 .688.395c1.535.754 3.035.984 3.773.905zM93.57 21.645c-.003.34.048.68.151 1.005 0 .03.015.045.015.075a3.824 3.824 0 0 0 3.658 2.67v3.841c-1.89 0-3.235.06-5.29-1.14-2.328-1.38-3.643-3.886-3.643-6.496 0-2.686 1.466-5.387 3.975-6.693 1.814-.945 3.19-.945 4.973-.945v3.84a3.833 3.833 0 0 0-2.706 1.111 3.777 3.777 0 0 0-1.118 2.687l-.015.045z"></path><path fill="#FFF" fill-opacity=".4" d="M101.248 21.645c.003.34-.048.68-.151 1.005 0 .03-.015.045-.015.075a3.824 3.824 0 0 1-3.658 2.67v3.841c1.874 0 3.235.06 5.275-1.14 2.343-1.38 3.658-3.886 3.658-6.496 0-2.686-1.466-5.387-3.975-6.693-1.814-.945-3.19-.945-4.973-.945v3.84a3.833 3.833 0 0 1 2.706 1.111 3.777 3.777 0 0 1 1.118 2.687v.045h.015z"></path><path fill="#FFF" d="M38.208 10.482h14.159l-1.315 3.87H47.35v14.806h-4.55V14.352h-4.591v-3.87zm37.545 0v3.87h4.597v14.806h4.565V14.352h3.703l1.315-3.87h-14.18zm-20.299 4.396c.893 0 1.697-.534 2.039-1.353a2.179 2.179 0 0 0-.478-2.387 2.219 2.219 0 0 0-2.405-.474 2.19 2.19 0 0 0-1.362 2.023c-.002.581.229 1.139.642 1.55.414.41.975.641 1.56.64h.004zm-2.206 14.269h4.472V16.428h-4.477l.005 12.719zM73.8 14.773h-5.23l-4.505 4.471v-8.762h-4.443l-.015 18.65h4.489V24.27l1.388-1.26 4.353 6.122h4.792l-6.303-8.943 5.474-5.416zm42.896 5.432l5.471-5.432h-5.23l-4.503 4.471v-8.762h-4.444l-.03 18.665h4.488v-4.862l1.406-1.26 4.353 6.122H123l-6.304-8.942zm-11.502 1.38c0 4.215-3.492 7.637-7.8 7.637s-7.8-3.422-7.8-7.637c0-4.216 3.49-7.637 7.799-7.637 4.308 0 7.8 3.42 7.8 7.637zm-3.976 0c0-1.535-.932-2.92-2.361-3.507a3.845 3.845 0 0 0-4.167.823 3.775 3.775 0 0 0-.829 4.136 3.824 3.824 0 0 0 3.533 2.344 3.833 3.833 0 0 0 2.705-1.11 3.777 3.777 0 0 0 1.119-2.686z"></path></g></svg> 