<?xml version="1.0" encoding="UTF-8"?> <svg xmlns="http://www.w3.org/2000/svg" xmlns:xlink="http://www.w3.org/1999/xlink" width="43" height="32" viewBox="0 0 43 32"><defs><path id="a" d="M.108.215h30.62v31.307H.108z"></path></defs><g fill="none" fill-rule="evenodd"><path fill="#69A7DB" d="M28.438 12.847a5.008 5.008 0 0 1-1.464.41 2.6 2.6 0 0 0 1.118-1.44 4.991 4.991 0 0 1-1.614.629 2.529 2.529 0 0 0-1.86-.82c-1.406 0-2.546 1.166-2.546 2.604 0 .203.022.402.064.593-2.116-.108-3.993-1.145-5.248-2.72a2.62 2.62 0 0 0-.346 1.308c0 .903.45 1.7 1.134 2.168a2.501 2.501 0 0 1-1.154-.327v.034c0 1.262.878 2.312 2.044 2.553a2.56 2.56 0 0 1-1.152.043c.325 1.036 1.264 1.789 2.38 1.81a5.032 5.032 0 0 1-3.772 1.077 7.097 7.097 0 0 0 3.905 1.17c4.685 0 7.246-3.967 7.246-7.408 0-.113-.003-.224-.007-.337a5.27 5.27 0 0 0 1.272-1.347M36.158 20.795h6.816l-3.59-4.611 3.59-4.616h-6.396v9.141"></path><path stroke="#69A7DB" stroke-linejoin="round" stroke-width="1.106" d="M36.158 20.795h6.816l-3.59-4.611 3.59-4.616h-6.396v9.141"></path><path fill="#69A7DB" d="M7.571 20.795H.756l3.59-4.611-3.59-4.616h6.398v9.141"></path><path stroke="#69A7DB" stroke-linejoin="round" stroke-width="1.106" d="M7.571 20.795H.756l3.59-4.611-3.59-4.616h6.398v9.141"></path><g transform="translate(6.603 .071)"><mask id="b" fill="#fff"><use xlink:href="#a"></use></mask><path fill="#69A7DB" d="M15.418 5.835c-5.412 0-9.815 4.501-9.815 10.035 0 5.53 4.403 10.033 9.815 10.033s9.814-4.503 9.814-10.033c0-5.534-4.402-10.035-9.814-10.035m0 25.688c-8.441 0-15.31-7.024-15.31-15.653C.108 7.24 6.977.215 15.418.215c8.443 0 15.31 7.024 15.31 15.655 0 8.63-6.867 15.653-15.31 15.653" mask="url(#b)"></path></g><path fill="#FEFEFE" d="M34.944 16.31a.582.582 0 0 1-.575.588.582.582 0 0 1-.575-.589c0-.326.257-.59.575-.59.318 0 .575.264.575.59M9.476 16.31a.583.583 0 0 1-.577.588.583.583 0 0 1-.575-.589c0-.326.259-.59.575-.59.32 0 .577.264.577.59M11.782 23.631c.144.19.29.375.441.554.034.04.075.079.12.113.044.035.092.061.142.078.05.017.1.022.15.013.05-.008.1-.035.146-.082a.309.309 0 0 0 .106-.29.406.406 0 0 0-.054-.142 1.032 1.032 0 0 0-.1-.14 12.906 12.906 0 0 1-.424-.53l-.527.426m.487-.978c.22.314.452.613.693.899.116.137.199.26.244.374a.783.783 0 0 1 .066.304.533.533 0 0 1-.058.241.708.708 0 0 1-.12.175.651.651 0 0 1-.167.124.46.46 0 0 1-.237.05.69.69 0 0 1-.304-.096 1.386 1.386 0 0 1-.363-.321c-.16-.19-.317-.386-.47-.587l-.611.496c-.107-.14-.21-.283-.313-.428l1.64-1.231M14.328 26.525c.217.16.437.313.662.458.044-.326.096-.65.156-.97l-.008-.005c-.263.18-.534.352-.81.517m.828-.94c.121.086.244.17.367.253-.11.757-.172 1.532-.184 2.319-.15-.084-.3-.17-.448-.26.017-.206.037-.409.06-.611-.3-.19-.595-.394-.883-.61-.173.098-.348.194-.525.287a15.078 15.078 0 0 1-.398-.323 15.709 15.709 0 0 0 2.011-1.056M17.766 28.015c.225.08.452.154.68.222.134.04.244.04.326.005.083-.036.136-.108.163-.216a.338.338 0 0 0 .006-.167.252.252 0 0 0-.064-.118.373.373 0 0 0-.116-.08 1.117 1.117 0 0 0-.145-.055 12.058 12.058 0 0 1-.642-.21l-.208.619m-.076-1.044c.344.136.693.256 1.046.36.245.07.416.165.52.292a.512.512 0 0 1 .101.45.524.524 0 0 1-.101.231.516.516 0 0 1-.152.128.467.467 0 0 1-.153.05c-.047.007-.084.01-.105.01 0 .003 0 .005-.002.006a.524.524 0 0 1 .111.059.366.366 0 0 1 .101.101.42.42 0 0 1 .063.152.49.49 0 0 1-.006.208c-.026.12-.038.233-.036.336a.394.394 0 0 0 .064.235 13.625 13.625 0 0 1-.492-.116.291.291 0 0 1-.024-.16c.006-.055.016-.107.029-.156a1.23 1.23 0 0 0 .037-.246.408.408 0 0 0-.034-.188.355.355 0 0 0-.125-.139.873.873 0 0 0-.232-.1c-.21-.064-.417-.132-.623-.206l-.275.814a13.47 13.47 0 0 1-.445-.167l.733-1.954M20.874 27.746c.616.062 1.235.075 1.853.04.005.106.01.211.017.316-.249.014-.498.02-.747.02l-.008 1.777c-.156 0-.312-.004-.468-.01l.065-1.777c-.248-.009-.495-.026-.742-.051l.03-.315M24.25 27.6c.14-.025.279-.054.417-.085.449.425.938.826 1.464 1.195a.07.07 0 0 1 .007-.002l-.448-1.472c.122-.04.244-.082.365-.125l.67 1.978c-.157.056-.316.11-.474.16a13.31 13.31 0 0 1-1.501-1.186l-.01.003.316 1.505c-.145.032-.292.062-.439.09l-.367-2.06M27.69 26.38c.498-.27.98-.578 1.444-.923.06.086.12.17.179.257-.36.268-.73.514-1.11.738l.262.477c.367-.216.726-.452 1.074-.708l.168.245c-.357.261-.723.502-1.098.723l.294.533c.431-.253.85-.533 1.258-.838l.18.257c-.548.41-1.118.775-1.707 1.094l-.943-1.855M31.434 24.647c.176-.19.348-.385.515-.587a.605.605 0 0 0 .157-.327.286.286 0 0 0-.117-.25.3.3 0 0 0-.146-.072.25.25 0 0 0-.137.019.445.445 0 0 0-.127.085c-.04.038-.08.08-.116.124-.157.191-.319.375-.485.554l.456.454m-.967-.347c.28-.28.548-.577.806-.89.178-.218.343-.357.506-.413a.46.46 0 0 1 .452.072.47.47 0 0 1 .159.195.56.56 0 0 1 .016.382c-.018.052-.03.089-.041.112a.028.028 0 0 1 .004.003.632.632 0 0 1 .105-.09.428.428 0 0 1 .139-.064.389.389 0 0 1 .35.083c.095.073.19.13.284.168a.352.352 0 0 0 .24.026c-.11.156-.221.309-.335.458a.256.256 0 0 1-.156-.038 1.1 1.1 0 0 1-.126-.09 1.08 1.08 0 0 0-.202-.136.359.359 0 0 0-.185-.039.371.371 0 0 0-.183.072 1.03 1.03 0 0 0-.2.193c-.153.184-.31.363-.471.536l.6.6c-.116.124-.234.247-.353.367L30.467 24.3M11.843 7.004a1.054 1.054 0 0 0-.212.355.712.712 0 0 0 .06.616.847.847 0 0 0 .446.364.686.686 0 0 0 .575-.036.961.961 0 0 0 .281-.232.966.966 0 0 0 .19-.313.741.741 0 0 0-.035-.59.885.885 0 0 0-.4-.418.665.665 0 0 0-.28-.073.66.66 0 0 0-.31.073 1.005 1.005 0 0 0-.315.254m-.216-.2c.147-.17.302-.297.462-.383a1.17 1.17 0 0 1 .466-.145.909.909 0 0 1 .765.317c.098.112.17.237.215.375.047.137.065.279.058.425a1.304 1.304 0 0 1-.105.441c-.063.15-.155.294-.279.437a1.66 1.66 0 0 1-.391.34 1.267 1.267 0 0 1-.42.165 1.05 1.05 0 0 1-.42-.004.97.97 0 0 1-.661-.503 1.007 1.007 0 0 1-.106-.437c-.004-.16.028-.328.096-.506.068-.177.174-.353.32-.522M13.976 4.703a13.465 13.465 0 0 1 1.64-1.025l.14.283c-.412.217-.815.459-1.207.723l.29.46c.331-.223.67-.428 1.015-.617l.136.265c-.338.184-.669.386-.992.604l.493.78c-.117.078-.232.159-.346.242l-1.169-1.715M17.09 3.008c.589-.226 1.19-.408 1.799-.548l.067.31c-.444.101-.884.227-1.318.375l.169.522c.366-.126.736-.234 1.11-.325l.067.291c-.366.09-.728.195-1.085.318l.285.883c-.128.044-.256.09-.383.139l-.71-1.965M20.46 2.195c.156-.016.313-.03.47-.042l.145 2.09c-.134.01-.268.023-.402.037l-.214-2.085M24.405 3.028a.637.637 0 0 0-.049-.18.473.473 0 0 0-.107-.154.624.624 0 0 0-.174-.118.902.902 0 0 0-.247-.07.842.842 0 0 0-.371.02.643.643 0 0 0-.427.395 1.03 1.03 0 0 0-.048.585c.02.098.056.187.107.268.051.08.118.148.205.204a.781.781 0 0 0 .315.109.671.671 0 0 0 .248-.004.562.562 0 0 0 .349-.234.765.765 0 0 0 .096-.199c.138.028.275.057.412.09a.894.894 0 0 1-.425.532c-.101.055-.212.093-.333.113-.122.02-.25.018-.388-.002a1.306 1.306 0 0 1-.45-.143 1.124 1.124 0 0 1-.533-.63 1.146 1.146 0 0 1 .044-.847.958.958 0 0 1 .269-.333c.116-.091.257-.16.42-.2.165-.043.35-.05.551-.02.15.022.29.06.416.116.127.055.233.124.322.206a.77.77 0 0 1 .194.27.65.65 0 0 1 .046.321 13.24 13.24 0 0 0-.442-.095M26.58 2.951c.15.056.3.114.447.175l-.754 1.947a11.048 11.048 0 0 0-.38-.148l.687-1.974M28.517 5.31c.22.14.435.288.647.443.065-.322.12-.647.168-.975l-.01-.007c-.275.173-.543.352-.805.539m.79-.98c.145.096.29.194.432.296-.09.787-.228 1.556-.414 2.302a11.701 11.701 0 0 0-.356-.289c.048-.195.092-.391.133-.589-.27-.202-.545-.39-.827-.567-.16.117-.316.236-.47.358a12.79 12.79 0 0 0-.372-.213c.584-.471 1.21-.906 1.873-1.298M31.752 6.387c.118.125.235.253.35.384l-1.276 1.197c.291.332.569.685.83 1.058l-.247.186a12.308 12.308 0 0 0-1.107-1.358l1.45-1.467"></path></g></svg> 